PathFileType	4	(X/Y/Z)	 s04c0202.trc
DataRate	CameraRate	NumFrames	NumMarkers	Units	OrigDataRate	OrigDataStartFrame	OrigNumFrames
200	200	7	50	mm	200	1001	2000
Frame#	Time	racr			lacr			c7			jug			rlel			rdr			llel			ldr			s2			lic			ric			lasi			rasi			rpsi			lpsi			rgt			lgt			rth1			rth2			rth3			rth4			rlfc			rmfc			rsh1			rsh2			rsh3			rsh4			rlmal			rmmal			rcal			rtoe			rmt5			lth1			lth2			lth4			lth3			llfc			lmfc			lsh1			lsh2			lsh3			lsh4			llmal			lmmal			lcal			ltoe			lmt5			SBIKE			LBIKE			RBIKE			
		X1	Y1	Z1	X2	Y2	Z2	X3	Y3	Z3	X4	Y4	Z4	X5	Y5	Z5	X6	Y6	Z6	X7	Y7	Z7	X8	Y8	Z8	X9	Y9	Z9	X10	Y10	Z10	X11	Y11	Z11	X12	Y12	Z12	X13	Y13	Z13	X14	Y14	Z14	X15	Y15	Z15	X16	Y16	Z16	X17	Y17	Z17	X18	Y18	Z18	X19	Y19	Z19	X20	Y20	Z20	X21	Y21	Z21	X22	Y22	Z22	X23	Y23	Z23	X24	Y24	Z24	X25	Y25	Z25	X26	Y26	Z26	X27	Y27	Z27	X28	Y28	Z28	X29	Y29	Z29	X30	Y30	Z30	X31	Y31	Z31	X32	Y32	Z32	X33	Y33	Z33	X34	Y34	Z34	X35	Y35	Z35	X36	Y36	Z36	X37	Y37	Z37	X38	Y38	Z38	X39	Y39	Z39	X40	Y40	Z40	X41	Y41	Z41	X42	Y42	Z42	X43	Y43	Z43	X44	Y44	Z44	X45	Y45	Z45	X46	Y46	Z46	X47	Y47	Z47	X48	Y48	Z48	X49	Y49	Z49	X50	Y50	Z50	
1001	5.0050	513.861205	1343.639810	-147.642099	507.804727	1339.666928	-428.427160	490.958222	1414.075782	-288.019726	451.843104	1262.716313	-293.051539	453.535790	1075.643840	28.039813	693.567381	949.300480	-80.556011	474.073079	1090.890501	-579.381090	690.399214	950.067506	-453.577213	-69.714890	1183.770984	-275.377998	75.271249	1207.522933	-431.933997	85.570129	1194.160817	-109.998873	120.135983	1165.572774	-390.059338	133.197564	1147.267539	-154.737828	-41.827861	1228.236833	-229.410243	-46.630164	1235.190902	-302.712020	36.796892	1129.439450	-97.537423	57.111086	1135.949460	-460.901072	136.996530	995.736480	-73.465013	204.109147	938.368079	-76.996792	235.912840	858.969444	-77.034431	231.366408	958.449210	-92.816045	296.790726	727.437957	-94.199582	286.809971	710.443846	-209.178871	218.206017	626.097030	-75.866764	189.683447	541.583000	-95.522924	122.432006	488.876316	-110.343891	219.646188	527.181789	-115.470969	48.041906	353.675498	-123.263781	82.192771	353.131479	-204.738875	-19.760126	354.722438	-173.275526	232.621290	185.688017	-146.910508	157.383096	200.304236	-100.865895	126.982947	1076.840973	-466.579072	212.341462	1061.689663	-467.501018	227.377018	1093.102436	-456.326740	280.201974	1003.770121	-469.822621	414.346021	913.138590	-444.677651	445.851308	894.829658	-334.549619	389.391949	799.514586	-470.632598	374.794143	715.370036	-450.179747	320.292853	645.243396	-449.899419	399.566129	708.159187	-420.983346	256.850888	512.853024	-443.656453	253.412782	520.957733	-352.579147	173.080742	489.757337	-407.222131	472.739250	477.329170	-397.235437	406.887303	437.691815	-462.602347	-177.185795	935.633718	-280.281702	-2.900965	86.011924	-485.250072	-14.984668	80.556404	-84.385294	
1002	5.0100	512.828825	1343.534453	-147.011405	507.204669	1339.956457	-428.644200	490.125735	1414.230751	-287.524166	450.907347	1262.892407	-292.760416	451.908903	1075.030429	28.168759	691.919021	948.781489	-80.357083	473.190426	1091.186453	-579.860299	689.480657	950.215164	-453.961693	-69.624040	1181.989124	-275.418678	75.310925	1205.524791	-432.512011	85.886413	1192.838184	-110.494273	119.884741	1163.562523	-389.809957	133.598248	1146.162327	-155.175347	-41.847151	1226.629258	-229.605131	-46.457220	1233.140710	-303.006911	37.743849	1128.644934	-97.293324	57.366150	1130.650596	-460.657821	140.922400	997.686458	-74.898146	209.084501	941.580422	-78.634320	242.618301	863.040130	-77.790954	236.255794	962.472337	-94.154117	304.044003	731.934600	-93.756853	294.073515	714.592351	-208.555225	223.723330	632.121557	-75.379997	192.699534	548.338745	-95.223340	124.151698	497.522272	-110.000923	222.383330	533.205344	-115.288775	46.073133	364.342947	-123.214865	80.528504	362.870617	-204.640123	-21.704895	367.367807	-173.289866	225.879485	191.022838	-146.849246	151.097567	207.821785	-100.951549	127.281389	1070.294846	-466.386980	212.233513	1053.330035	-467.079984	228.001386	1085.087787	-456.900155	279.209727	994.571798	-468.914293	410.009611	900.719465	-444.856637	442.002656	882.273422	-333.457849	388.004131	786.033746	-469.739312	374.522924	701.891810	-448.687668	321.362822	630.809812	-448.752048	399.406148	694.886792	-419.150779	260.215591	498.390638	-443.419534	254.186338	504.556474	-352.185477	177.403587	472.395035	-406.811217	477.037162	471.594397	-397.232350	412.727884	429.459904	-462.611387	-177.168645	935.479804	-279.956306	-3.169331	85.609268	-484.928295	-14.992776	80.474647	-84.379555	
1003	5.0150	511.869005	1343.601406	-146.306126	506.633722	1340.258952	-428.771777	489.451831	1414.519946	-287.259671	449.888679	1263.259089	-292.506791	450.393549	1074.925480	28.106392	690.193537	948.161439	-80.335941	472.280557	1091.426775	-580.203378	688.678850	950.402992	-454.413762	-69.522200	1179.993652	-275.628507	75.427351	1203.352326	-433.256683	86.271275	1191.438757	-110.994498	119.814752	1161.485807	-389.720266	134.108372	1145.248462	-155.590992	-41.814250	1224.823201	-229.872628	-45.288048	1230.938126	-304.342384	38.451030	1127.566336	-97.254255	57.798141	1124.586388	-460.466951	144.696393	999.565450	-75.936764	213.904772	944.854691	-79.642163	248.971641	866.919811	-78.540726	240.294363	965.766191	-96.063355	310.865296	736.235759	-93.300122	300.708789	719.014517	-208.093914	228.803354	638.044919	-74.881066	195.806027	555.014389	-94.794737	125.822055	505.988760	-109.600554	224.967152	539.186796	-115.097062	44.212307	375.226056	-123.256968	78.381251	372.891562	-204.443996	-23.635400	379.700582	-173.183285	219.540919	197.206537	-146.769362	145.226791	215.751763	-100.955733	127.708419	1063.476273	-466.379874	212.361524	1045.206205	-467.041319	228.688129	1076.863567	-457.477980	278.379677	985.307821	-468.092182	407.629625	889.556828	-442.891997	438.080945	869.869958	-331.994770	386.349047	772.695321	-468.354428	374.304778	688.231860	-447.085185	322.563900	616.210791	-447.479406	399.088028	681.877284	-417.306536	263.692354	484.137772	-442.948621	256.201866	487.243714	-352.612203	181.618884	455.666040	-406.343373	481.156377	464.903975	-397.249006	418.137481	420.708168	-462.480023	-177.092116	935.440943	-279.785240	-3.286650	85.478894	-484.817774	-14.995810	80.433379	-84.355356	
1004	5.0200	510.925759	1343.799873	-145.606840	506.201507	1340.473326	-429.058220	488.775404	1414.743510	-286.771982	449.083597	1263.502996	-292.001746	448.999006	1075.133074	27.977714	688.484860	947.664505	-80.428883	471.338472	1091.581167	-580.442239	687.962170	950.581912	-454.829770	-69.516941	1177.647572	-275.853336	75.601429	1201.037872	-434.034600	86.597394	1189.968142	-111.380909	119.945928	1159.359131	-389.823027	134.780898	1143.862064	-156.617636	-41.788840	1222.726012	-230.164129	-44.874076	1228.319800	-305.017408	39.341028	1126.220372	-97.411780	58.300554	1118.126202	-460.161210	148.453677	1001.250029	-77.789387	218.505542	947.749532	-81.003017	254.864066	870.426729	-79.305262	244.113840	968.483245	-97.795003	317.354756	740.122620	-92.909007	307.203458	723.002884	-207.515621	233.774194	643.676958	-74.342261	198.656319	561.479512	-94.478337	127.444002	514.278406	-109.147816	227.385961	545.124114	-114.951155	42.129560	385.675665	-122.977283	76.410664	382.764196	-204.334591	-25.718279	391.939338	-173.068502	213.771328	204.081443	-146.869477	139.880691	224.156972	-100.876287	128.212734	1056.715493	-466.464583	212.673116	1037.159297	-467.455660	229.467093	1068.571430	-458.030488	277.644458	976.131969	-467.501178	404.717626	877.734152	-442.267208	434.312009	857.764709	-333.157446	384.624441	759.527749	-467.095889	374.188175	674.928066	-445.674408	324.100447	601.793255	-446.234568	398.816365	669.315296	-415.673619	266.909408	470.344499	-442.472537	258.776194	470.299782	-354.080264	185.784298	439.664568	-405.774128	484.981078	457.410358	-397.226513	423.088372	411.434766	-462.388993	-176.987282	935.559616	-279.608604	-3.301644	85.453063	-484.784446	-15.002081	80.393329	-84.330208	
1005	5.0250	509.988280	1344.047888	-144.983404	505.556049	1340.176042	-427.634188	488.065195	1414.794802	-285.908310	448.053987	1263.622058	-291.034927	447.719199	1075.460201	27.829866	686.806249	947.257892	-80.616241	470.482309	1091.852126	-580.670556	687.228782	951.011371	-455.285437	-69.181101	1175.062065	-276.029945	75.923576	1198.809837	-434.963102	86.942979	1188.456211	-111.786020	120.298183	1157.198997	-390.151003	135.514051	1142.576178	-157.858830	-41.790273	1220.431495	-230.447174	-45.037160	1225.622423	-305.408608	40.476509	1124.867139	-97.611767	58.987842	1111.546172	-459.800703	151.814469	1002.917222	-79.038710	222.630979	950.099582	-82.656948	260.316400	873.556474	-79.892583	248.213503	971.396198	-98.492463	323.462107	743.710056	-92.499790	312.923638	726.420113	-207.266728	238.570243	649.021513	-73.958691	201.333921	567.780987	-94.244504	128.892740	522.428146	-108.768764	230.515431	551.075127	-114.734948	40.245328	396.288068	-122.866024	74.419375	392.716252	-204.234143	-27.602971	403.956497	-172.846839	208.496244	211.761580	-146.881115	134.957738	233.265741	-100.778741	128.854420	1050.071870	-466.627467	212.985332	1029.107196	-467.198512	230.333148	1060.442023	-458.478293	276.997381	967.147076	-466.929308	401.581743	865.998886	-441.935073	430.896838	846.400955	-333.481795	382.725869	747.509456	-466.691092	374.049486	662.822720	-444.687125	325.702313	588.613422	-444.972683	398.844546	657.868946	-414.666787	270.317657	456.777518	-441.907944	261.830440	455.156582	-354.409102	189.693415	424.596720	-405.567133	488.413830	449.269410	-397.189653	427.542134	401.800465	-462.207504	-176.938522	935.453905	-279.240976	-3.283581	85.452741	-484.764805	-14.985672	80.370512	-84.297109	
1006	5.0300	509.097494	1344.325698	-144.410648	505.331998	1340.253859	-427.785561	487.357198	1414.786894	-285.109474	447.648256	1263.520615	-290.210268	446.488361	1075.764492	27.615239	685.375874	947.015214	-80.807521	469.871270	1091.932219	-580.479202	686.729603	951.189647	-455.655236	-68.170346	1171.862584	-275.805896	76.155678	1196.474333	-435.753128	87.418450	1186.933501	-112.156508	120.891430	1155.021911	-390.736955	136.254722	1141.611547	-158.412613	-41.959044	1217.860485	-230.656367	-45.275824	1222.910219	-305.661075	41.823017	1123.220519	-97.917860	59.609292	1105.149829	-459.339545	154.854503	1004.048687	-80.032316	226.405621	952.417612	-83.361954	265.246907	876.480819	-80.236604	251.645751	974.032348	-99.095336	329.233868	747.065811	-92.158047	318.397967	729.497115	-206.946457	242.822854	654.263531	-73.633572	203.796034	574.002547	-94.038396	130.254324	530.449768	-108.515059	232.377898	556.676469	-114.840402	38.461482	406.909268	-122.878162	72.471562	402.845528	-204.330176	-29.390371	415.629579	-172.835924	203.854965	220.213333	-146.905768	130.609074	242.581274	-100.729995	129.672819	1043.785560	-466.957577	213.476832	1021.707810	-467.786823	231.275070	1052.300725	-458.344102	276.423825	958.455748	-466.548786	398.192081	854.544506	-442.169865	426.955849	835.822637	-332.416304	380.849682	736.407480	-466.507266	373.552589	651.851244	-444.204032	326.666940	576.754358	-444.236067	398.714012	647.282092	-414.352099	273.003513	443.753237	-441.662435	265.516071	443.726616	-353.580968	193.309329	409.691208	-405.181578	491.502380	440.625443	-396.968650	431.501038	392.095661	-461.979097	-176.841276	935.456185	-279.172162	-3.262130	85.464425	-484.748522	-14.976243	80.362450	-84.269444	
1007	5.0350	508.246096	1344.522429	-143.896052	505.146717	1340.204378	-427.827371	486.738058	1414.818363	-284.523755	447.754038	1263.531489	-289.904954	445.398750	1075.918550	27.547337	684.207541	946.735069	-80.830997	469.306242	1092.285557	-580.798441	686.434057	951.266734	-455.917137	-67.971488	1169.362751	-275.947632	76.561927	1194.277338	-436.746418	87.854673	1185.511944	-112.517662	121.745582	1152.844376	-391.613644	136.957845	1140.836056	-159.141235	-42.051606	1215.221339	-230.845622	-45.493006	1220.209956	-306.008992	43.198605	1121.626348	-97.911298	60.332031	1099.140862	-458.652493	157.407153	1005.102190	-80.586788	229.748240	954.667393	-83.158676	269.738747	879.125844	-80.193526	254.496857	976.494728	-99.520787	334.832377	750.278963	-91.815429	323.581229	732.235147	-206.562018	246.990337	659.415310	-73.383860	206.083983	580.068241	-94.041789	131.500378	538.386544	-108.413517	234.029312	562.346036	-114.955737	36.940828	417.638883	-123.130816	70.974083	412.703334	-204.547040	-30.951352	427.230632	-172.952336	199.844062	228.938946	-147.069497	126.938559	252.247923	-100.612890	130.536232	1037.994067	-467.396146	214.005331	1014.295622	-467.926668	232.283529	1044.777248	-458.708288	275.794209	950.089417	-466.232879	394.836891	844.134272	-441.988729	424.196787	825.900733	-331.616305	378.629771	725.940237	-466.273671	372.622443	641.223605	-444.109868	326.871406	565.584205	-444.188608	398.080075	636.946734	-414.436288	275.579383	430.941977	-441.698395	266.605928	432.974003	-353.573185	196.496266	395.602099	-405.307924	494.161961	431.470341	-396.805390	434.936741	381.931240	-461.758732	-176.817527	935.429271	-279.012194	-3.235825	85.464373	-484.724656	-14.982224	80.346817	-84.243876	
